<?xml version="1.0" standalone="no"?>
<!DOCTYPE svg PUBLIC "-//W3C//DTD SVG 20010904//EN"
 "http://www.w3.org/TR/2001/REC-SVG-20010904/DTD/svg10.dtd">
<svg version="1.0" xmlns="http://www.w3.org/2000/svg"
 width="900.000000pt" height="501.000000pt" viewBox="0 0 900.000000 501.000000"
 preserveAspectRatio="xMidYMid meet">

<g transform="translate(0.000000,501.000000) scale(0.100000,-0.100000)"
fill="#000000" stroke="none">
<path d="M3551 4333 c-65 -32 -88 -108 -55 -179 16 -34 34 -47 196 -138 52
-29 69 -52 70 -96 2 -72 -75 -115 -151 -84 -61 24 -98 95 -81 154 11 38 -10
41 -45 5 -78 -77 52 -202 188 -180 96 16 137 56 137 134 0 56 -48 107 -150
160 -114 60 -145 106 -116 175 10 24 26 41 48 51 23 10 27 14 13 14 -11 0 -35
-7 -54 -16z"/>
<path d="M3677 4338 c51 -25 50 -100 -2 -134 -34 -22 -32 -34 6 -34 43 0 65
15 78 51 8 23 7 39 -3 64 -14 32 -60 66 -88 64 -7 0 -3 -5 9 -11z"/>
<path d="M5008 4123 c3 -242 8 -268 52 -290 30 -15 33 -12 20 21 -6 16 -10
118 -10 239 0 176 -3 216 -16 235 -8 12 -23 22 -32 22 -16 0 -17 -19 -14 -227z"/>
<path d="M3875 4290 c-3 -5 -3 -19 0 -31 10 -31 60 -23 60 11 0 20 -6 26 -27
28 -14 2 -29 -2 -33 -8z"/>
<path d="M3880 4020 c0 -147 1 -152 25 -175 27 -28 50 -33 41 -9 -3 9 -6 80
-6 159 0 117 -3 146 -16 159 -8 9 -22 16 -30 16 -11 0 -14 -27 -14 -150z"/>
<path d="M4030 4009 c4 -144 7 -162 24 -175 11 -8 23 -14 28 -14 4 0 8 52 8
115 0 124 10 165 51 205 16 15 18 20 6 13 -10 -5 -27 -23 -38 -39 l-19 -29 0
27 c0 30 -23 58 -48 58 -15 0 -17 -15 -12 -161z"/>
<path d="M4195 4161 c42 -9 54 -51 54 -198 1 -110 3 -123 20 -133 11 -5 22
-10 24 -10 3 0 6 51 9 113 5 124 22 175 70 210 34 25 75 16 88 -19 6 -14 10
-81 10 -148 0 -128 3 -137 45 -150 20 -6 20 -2 14 137 -3 78 -9 150 -14 160
-10 23 -57 47 -92 47 -36 0 -89 -33 -98 -59 -9 -28 -21 -26 -29 4 -8 30 -54
55 -98 54 l-33 -1 30 -7z"/>
<path d="M4612 3926 c3 -223 5 -246 22 -265 37 -41 42 -28 38 101 l-5 122 37
-32 c96 -84 215 0 216 153 0 76 -23 123 -74 149 -48 23 -95 15 -141 -26 l-35
-30 0 24 c0 29 -17 48 -43 48 -17 0 -18 -11 -15 -244z m199 211 c30 -23 43
-62 42 -128 0 -78 -24 -136 -65 -159 -25 -13 -31 -13 -55 0 -57 31 -82 146
-49 224 25 61 89 93 127 63z"/>
<path d="M5233 4156 c-18 -8 -42 -30 -53 -48 -30 -48 -25 -164 11 -233 22 -45
29 -50 60 -52 20 0 25 1 11 4 -51 10 -71 156 -33 239 21 47 64 84 96 84 27 0
55 -29 55 -57 0 -27 -34 -70 -71 -89 -17 -8 -39 -24 -50 -35 -20 -20 -26 -69
-9 -69 6 0 10 4 10 9 0 6 27 24 61 42 94 51 114 112 56 175 -38 42 -93 53
-144 30z"/>
<path d="M5485 4024 c16 -32 6 -66 -33 -107 -32 -34 -49 -44 -117 -68 -65 -24
-22 -26 56 -3 96 28 149 75 149 132 0 24 -37 72 -55 72 -12 0 -12 -4 0 -26z"/>
<path d="M4695 1539 c-59 -52 -75 -125 -75 -339 l0 -178 29 -12 c39 -16 64
-10 76 18 13 30 65 32 65 2 0 -24 42 -37 74 -22 29 13 36 58 36 237 0 105 -4
147 -20 198 -24 76 -72 127 -120 127 -18 0 -42 -11 -65 -31z m50 -335 c13 -3
33 0 45 6 35 19 49 -4 19 -29 -30 -26 -77 -26 -107 -1 -25 20 -21 46 5 36 8
-4 25 -9 38 -12z m45 -79 c0 -10 -10 -15 -30 -15 -20 0 -30 5 -30 15 0 10 10
15 30 15 20 0 30 -5 30 -15z m0 -40 c0 -8 -3 -15 -7 -15 -5 0 -18 -3 -30 -6
-19 -5 -23 -2 -23 15 0 17 6 21 30 21 20 0 30 -5 30 -15z"/>
<path d="M5115 1539 c-54 -48 -75 -129 -75 -294 0 -179 7 -224 36 -237 32 -15
74 -2 74 22 0 30 52 28 65 -2 12 -28 37 -34 76 -18 l29 12 0 178 c0 150 -3
188 -20 243 -24 76 -72 127 -120 127 -18 0 -42 -11 -65 -31z m39 -330 c19 -9
32 -9 56 1 23 9 34 10 42 2 16 -16 -30 -51 -67 -51 -35 -1 -81 31 -71 48 9 14
9 14 40 0z m56 -84 c0 -10 -10 -15 -30 -15 -20 0 -30 5 -30 15 0 10 10 15 30
15 20 0 30 -5 30 -15z m0 -46 c0 -15 -4 -19 -16 -15 -9 3 -22 6 -30 6 -8 0
-14 7 -14 15 0 10 10 15 30 15 24 0 30 -4 30 -21z"/>
<path d="M3790 1473 c-14 -3 -35 -14 -47 -26 -22 -19 -23 -28 -23 -164 0 -113
-4 -159 -20 -215 -24 -88 -26 -155 -4 -187 11 -15 15 -35 11 -61 l-5 -39 37
24 c43 27 99 28 146 3 l30 -16 2 47 c1 25 5 67 8 92 5 34 1 68 -14 123 -17 60
-21 105 -21 216 0 149 -7 181 -47 199 -13 6 -25 10 -26 10 -1 -1 -13 -4 -27
-6z"/>
<path d="M4133 1470 c-37 -15 -43 -42 -43 -186 0 -116 -4 -155 -26 -242 -25
-101 -26 -105 -9 -148 11 -28 14 -55 10 -75 l-7 -30 39 20 c48 24 99 22 146
-8 l36 -22 -9 31 c-9 32 0 73 19 85 17 10 13 74 -9 160 -15 60 -20 111 -20
222 0 139 -1 145 -25 168 -13 14 -31 25 -39 25 -8 0 -20 2 -28 4 -7 3 -23 1
-35 -4z"/>
<path d="M4931 944 c0 -11 3 -14 6 -6 3 7 2 16 -1 19 -3 4 -6 -2 -5 -13z"/>
<path d="M5001 944 c0 -11 3 -14 6 -6 3 7 2 16 -1 19 -3 4 -6 -2 -5 -13z"/>
<path d="M4012 880 c0 -14 2 -19 5 -12 2 6 2 18 0 25 -3 6 -5 1 -5 -13z"/>
<path d="M3951 834 c0 -11 3 -14 6 -6 3 7 2 16 -1 19 -3 4 -6 -2 -5 -13z"/>
<path d="M4021 830 c-2 -43 111 -220 140 -220 14 0 109 90 120 115 8 16 6 15
-13 -5 -13 -14 -41 -40 -62 -58 l-38 -34 -35 34 c-41 39 -80 97 -98 147 -8 20
-14 29 -14 21z"/>
<path d="M3923 767 c-22 -45 -99 -137 -114 -137 -5 0 -37 28 -71 62 -59 59
-60 60 -30 16 30 -44 91 -98 111 -98 16 0 91 99 113 148 26 57 18 64 -9 9z"/>
<path d="M4301 773 c-10 -26 -10 -27 4 -9 8 11 15 23 15 28 0 15 -7 8 -19 -19z"/>
<path d="M4876 755 c-9 -26 -7 -32 5 -12 6 10 9 21 6 23 -2 3 -7 -2 -11 -11z"/>
<path d="M5050 765 c0 -5 5 -17 10 -25 5 -8 10 -10 10 -5 0 6 -5 17 -10 25 -5
8 -10 11 -10 5z"/>
<path d="M4640 757 c0 -11 39 -87 62 -119 16 -23 27 -28 64 -28 42 0 46 3 74
47 17 26 30 51 30 57 0 5 -13 -11 -30 -37 -28 -44 -32 -47 -74 -47 -49 0 -53
4 -96 81 -16 30 -30 50 -30 46z"/>
<path d="M5286 743 c-4 -11 -20 -40 -36 -66 -28 -45 -32 -47 -75 -47 -43 0
-47 2 -75 47 -17 26 -30 42 -30 37 0 -6 13 -31 30 -57 28 -44 32 -47 73 -47
29 0 49 6 59 18 21 23 71 123 65 129 -3 2 -8 -4 -11 -14z"/>
</g>
</svg>
